<?xml version="1.0" encoding="UTF-8"?>
<svg width="24" height="24" viewBox="0 0 24 24" fill="none" xmlns="http://www.w3.org/2000/svg">
  <path d="M4.5 12c-1.93 0-3.5-1.57-3.5-3.5S2.57 5 4.5 5 8 6.57 8 8.5 6.43 12 4.5 12zm0-5c-.83 0-1.5.67-1.5 1.5S3.67 10 4.5 10 6 9.33 6 8.5 5.33 7 4.5 7zm9.5 5c-1.93 0-3.5-1.57-3.5-3.5S12.07 5 14 5s3.5 1.57 3.5 3.5S15.93 12 14 12zm0-5c-.83 0-1.5.67-1.5 1.5s.67 1.5 1.5 1.5 1.5-.67 1.5-1.5S14.83 7 14 7zm5.5 5c-1.93 0-3.5-1.57-3.5-3.5S17.57 5 19.5 5s3.5 1.57 3.5 3.5S21.43 12 19.5 12zm0-5c-.83 0-1.5.67-1.5 1.5s.67 1.5 1.5 1.5 1.5-.67 1.5-1.5S20.33 7 19.5 7zM12 19c-2.76 0-5-2.24-5-5h2c0 1.66 1.34 3 3 3s3-1.34 3-3h2c0 2.76-2.24 5-5 5z" fill="currentColor"/>
</svg> 